<?xml version="1.0" encoding="UTF-8"?>
<svg id="Camada_2" data-name="Camada 2" xmlns="http://www.w3.org/2000/svg" viewBox="0 0 453.01 64.31">
  <defs>
    <style>
      .cls-1 {
        fill: #fff;
        fill-rule: evenodd;
      }
    </style>
  </defs>
  <g id="Camada_1-2" data-name="Camada 1">
    <path class="cls-1" d="M99.9,0v49.38c0,12.05,3.73,14.93,15.22,14.93h40.48c11.77,0,15.21-2.87,15.21-14.93V0h-13.49v53.11h-43.64V0h-13.78ZM276.74,0h0v64.31h13.5v-24.69h20.38l29.85,24.69h19.52l-33.87-24.69c5.17,0,16.65.29,20.96-.86,5.45-1.44,7.18-5.45,7.18-11.2v-15.5c0-9.47-4.88-12.06-13.78-12.06h-63.73ZM333.87,10.34h0c4.31,0,7.46.57,7.46,5.45v8.04c0,4.88-2.87,5.74-7.46,5.74h-43.63V10.34h43.63ZM0,0h0v64.31h13.49v-24.69h20.38l29.86,24.69h19.52l-33.87-24.69c5.17,0,16.65.29,20.95-.86,5.74-1.44,7.46-5.45,7.46-11.2v-15.5c0-9.47-5.17-12.06-14.06-12.06H0ZM57.41,10.34h0c4.31,0,7.18.57,7.18,5.45v8.04c0,4.88-2.87,5.74-7.18,5.74H13.49V10.34h43.92ZM187.46,10.62h29.28v53.68h13.78V10.62h29.57V0h-72.63v10.62h0ZM404.2.29h0l-35.89,64.02h13.49l7.75-14.35h40.19l7.46,14.35h15.79L417.12.29h-12.92ZM395.59,39.33h0l14.64-26.98,14.07,26.98h-28.71Z"/>
  </g>
</svg>