<?xml version="1.0" encoding="UTF-8"?>
<svg id="Camada_2" data-name="Camada 2" xmlns="http://www.w3.org/2000/svg" viewBox="0 0 111.05 85.04">
  <defs>
    <style>
      .cls-1 {
        fill-rule: evenodd;
      }
    </style>
  </defs>
  <g id="Camada_1-2" data-name="Camada 1">
    <g>
      <path class="cls-1" d="M105.81,73.19v-9.11h-1.21v9.35h6.46v-.16h-5.24v-.08h0ZM97.18,73.19v-9.11h-1.21v9.35h6.46v-.16h-5.24v-.08h0ZM91.34,64.07v9.35h1.21v-9.35h-1.21ZM82.55,68.67v-4.36h.67c.55,0,1.02.03,1.39.12.38.09.67.23.85.44.17.21.3.44.38.71.08.27.12.56.12.9,0,.19-.01.36-.03.52-.02.16-.06.31-.12.45-.05.13-.11.25-.18.36-.07.11-.15.21-.24.29-.08.08-.18.17-.29.25-.12.08-.25.15-.4.19-.05.02-.1.03-.16.05-.24.08-.51.16-.82.16h-1.19v-.08h0ZM81.36,64.07v9.35h1.19v-4.52h.49c.93,0,1.71.52,2.34,1.21,1.07,1.18,1.68,2.88,1.8,3.31h.9c-.85-2.04-1.52-2.95-1.52-2.95-.81-1.09-1.4-1.37-1.79-1.55l-.31-.15.26-.04c.41-.06.77-.16,1.08-.3.34-.15.63-.35.87-.57.21-.2.38-.43.48-.68.11-.26.16-.53.16-.83,0-.25-.04-.49-.12-.71-.08-.22-.21-.42-.37-.6-.17-.18-.36-.33-.58-.45-.22-.12-.47-.22-.74-.3h0c-.27-.08-.59-.14-.95-.17-.36-.03-.76-.05-1.21-.05h-1.99ZM77.36,71.14c0,.21-.01.41-.05.59-.03.18-.08.34-.16.49-.07.15-.17.29-.31.41-.13.12-.3.23-.49.32-.2.1-.4.18-.62.23s-.44.07-.68.07c-.47,0-.9-.09-1.3-.26-.39-.17-.75-.44-1.06-.78-.32-.35-.56-.83-.72-1.42-.16-.58-.24-1.28-.24-2.1s.08-1.53.25-2.1c.17-.58.41-1.04.74-1.36.33-.33.69-.58,1.07-.74.38-.16.8-.25,1.24-.25s.82.07,1.18.21c.36.14.69.36.99.64.09.08.17.16.25.25.06.06.11.13.16.2l.21-.21c-.37-.41-.8-.73-1.28-.94-.49-.22-1.04-.32-1.64-.32-.7,0-1.32.12-1.87.36-.55.24-1.03.6-1.44,1.09-.41.49-.72,1.02-.92,1.58-.2.57-.3,1.17-.3,1.82s.11,1.25.32,1.79c.21.54.53,1.02.95,1.44.43.42.91.74,1.45.95.54.21,1.13.32,1.77.32.33,0,.66-.04,1.01-.11.35-.07.72-.18,1.1-.32.11-.04.24-.12.39-.22.17-.12.36-.27.52-.41h0c.21-.17.37-.38.47-.62.11-.24.17-.51.17-.79v-1.43h-1.16v1.61h0ZM53.17,64.07v7.39l-5.52-7.39h-1.31v9.35h.14v-8.91l6.79,8.91h.13v-9.35h-.24ZM41.76,64.07v9.35h1.21v-9.35h-1.21ZM37.19,67.99c-.12.19-.25.33-.4.44-.15.11-.31.19-.49.24-.17.05-.37.09-.59.1-.22.02-.47.02-.74.02h-.74v-4.45h.07c.08-.01.18-.02.3-.02.12,0,.26,0,.42,0,.44,0,.81.05,1.13.14.32.1.58.24.79.44.2.19.35.43.45.73.1.3.15.65.15,1.05,0,.26-.03.5-.09.73-.06.22-.14.42-.26.6h0ZM33.03,64.07v9.35h1.2v-1.36c0-.2,0-.36,0-.56,0-.1,0-.21,0-.38v-2.18h1.1c.54,0,1,0,1.37-.05.37-.04.66-.1.87-.2h0c.2-.1.39-.21.55-.35.16-.14.3-.3.41-.49.11-.19.19-.39.25-.61.06-.22.08-.45.08-.7,0-.29-.04-.55-.12-.78-.08-.23-.2-.44-.36-.63-.17-.19-.37-.36-.59-.51-.2-.13-.43-.24-.67-.3h0c-.27-.08-.6-.15-.99-.19-.36-.04-.78-.07-1.24-.07h-1.85ZM28.66,73.43h1.21v-9.35h-1.18l-3.53,8-3.54-8h-1.19v9.35h.16v-8.9l3.91,8.9h.23l3.92-8.9v8.9h0ZM16.02,73.43h1.32l-3.97-9.35h-.17l-3.87,9.35h.17l1.44-3.49h3.66l1.43,3.49h0ZM12.76,65.52l1.78,4.26h-3.54l1.76-4.26h0ZM7.26,71.97c-.13.18-.27.34-.43.48-.18.16-.38.29-.6.39-.26.12-.52.21-.78.27-.26.06-.51.09-.76.09-.47,0-.91-.09-1.3-.28-.39-.19-.75-.47-1.07-.84h0c-.32-.38-.55-.84-.71-1.38-.16-.54-.23-1.15-.23-1.85,0-.73.07-1.38.21-1.94.14-.57.36-1.05.65-1.45.29-.4.64-.7,1.03-.91.39-.2.84-.3,1.33-.3.4,0,.78.06,1.14.18s.7.31,1.03.56h0c.1.08.2.17.3.27.06.07.13.14.18.22l.16-.15c-.13-.15-.29-.29-.47-.43-.2-.15-.44-.29-.7-.43-.27-.14-.56-.24-.87-.31-.3-.07-.62-.1-.96-.1-.41,0-.8.05-1.17.14-.38.1-.74.24-1.07.43h0c-.34.19-.65.43-.91.72-.27.29-.49.64-.68,1.03h0c-.19.4-.34.81-.43,1.23-.09.42-.14.85-.14,1.3,0,.68.1,1.29.31,1.83.21.55.51,1.03.92,1.44.42.41.89.72,1.42.92.53.2,1.12.31,1.77.31.61,0,1.17-.12,1.67-.34.49-.22.92-.54,1.31-.97l-.15-.15h0ZM63.15,73.43h1.32l-3.97-9.35h-.17l-3.87,9.35h.17l1.44-3.49h3.66l1.43,3.49h0ZM59.89,65.52l1.78,4.26h-3.54l1.76-4.26Z"/>
      <g>
        <path class="cls-1" d="M67.75,34.21s0,.04,0,.06c-.31,4.41-2.32,8.36-5.38,11.21-3.03,2.83-7.1,4.56-11.55,4.56-4.67,0-8.91-1.91-11.98-4.98-3.08-3.07-4.98-7.32-4.98-11.98v-16.11c0-4.67,1.91-8.91,4.98-11.98,3.08-3.08,7.32-4.98,11.98-4.98s8.51,1.74,11.55,4.56c3.06,2.85,5.07,6.8,5.38,11.21,0,.02,0,.04,0,.06h-.88c-.29-4.17-2.2-7.92-5.1-10.62-2.87-2.68-6.73-4.32-10.94-4.32s-8.44,1.81-11.36,4.72c-2.91,2.91-4.72,6.93-4.72,11.36v16.11c0,4.42,1.81,8.44,4.72,11.36,2.91,2.91,6.93,4.72,11.36,4.72s8.07-1.64,10.94-4.32c2.9-2.7,4.8-6.45,5.1-10.62h.88Z"/>
        <path class="cls-1" d="M61.81,25.46s-.06,0-.09-.01v-.87s.06-.01.09-.01h14.94c.24,0,.44.2.44.44v8.05c0,4.67-1.91,8.91-4.98,11.98-3.07,3.07-7.32,4.98-11.98,4.98s-8.91-1.91-11.98-4.98c-3.08-3.08-4.98-7.32-4.98-11.98v-16.11c0-4.67,1.91-8.91,4.98-11.98,3.07-3.08,7.32-4.98,11.98-4.98s8.51,1.74,11.55,4.56c3.06,2.85,5.07,6.8,5.38,11.21,0,.02,0,.04,0,.06h-.88c-.29-4.17-2.2-7.92-5.1-10.62-2.87-2.68-6.73-4.32-10.94-4.32s-8.44,1.81-11.36,4.72-4.72,6.93-4.72,11.36v16.11c0,4.42,1.81,8.44,4.72,11.36,2.91,2.91,6.93,4.72,11.36,4.72s8.44-1.81,11.36-4.72c2.91-2.91,4.72-6.93,4.72-11.36v-7.61h-14.49Z"/>
      </g>
      <g>
        <path class="cls-1" d="M33.86,85.03h1.98c1.03,0,1.64-.43,1.64-1.19h0c0-.63-.5-1.06-1.13-1.15.52-.12.88-.52.88-1.08h0c0-.33-.11-.58-.29-.77-.26-.26-.67-.39-1.21-.39h-1.88v4.58h0ZM34.01,82.64v-2.07h1.73c.86,0,1.36.41,1.36,1.03h0c0,.71-.57,1.04-1.25,1.04h-1.84ZM34.01,84.89v-2.12h1.95c.75,0,1.38.37,1.38,1.06h0c0,.67-.55,1.06-1.49,1.06h-1.84ZM40.17,85.03h.14v-1.92l1.93-2.67h-.17l-1.83,2.54-1.85-2.54h-.17l1.94,2.67v1.92Z"/>
        <path class="cls-1" d="M73.1,83.26l1.04-1.92,1,1.92h-2.05ZM73.71,80.48l-2.56,4.56h.96l.55-1.02h2.86l.53,1.02h1.13l-2.56-4.56h-.92ZM58.26,81.21h2.09v3.83h.98v-3.83h2.11v-.76h-5.18v.76h0ZM48.99,81.19c.31,0,.51.04.51.39v.57c0,.35-.2.41-.51.41h-3.13v-1.37h3.13ZM44.9,80.46v4.58h.96v-1.76h1.45l2.13,1.76h1.39l-2.41-1.76c.37,0,1.19.02,1.49-.06.41-.1.53-.39.53-.8v-1.1c0-.68-.37-.86-1-.86h-4.54ZM68.7,81.19c.31,0,.53.04.53.39v.57c0,.35-.2.41-.53.41h-3.11v-1.37h3.11ZM64.62,80.46v4.58h.96v-1.76h1.45l2.13,1.76h1.39l-2.41-1.76c.37,0,1.19.02,1.49-.06.39-.1.51-.39.51-.8v-1.1c0-.68-.35-.86-.98-.86h-4.54ZM52.02,80.46v3.52c0,.86.27,1.06,1.08,1.06h2.89c.84,0,1.08-.2,1.08-1.06v-3.52h-.96v3.79h-3.11v-3.79h-.98Z"/>
      </g>
    </g>
  </g>
</svg>