<?xml version="1.0" encoding="UTF-8"?>
<svg id="Camada_2" data-name="Camada 2" xmlns="http://www.w3.org/2000/svg" viewBox="0 0 122.02 192">
  <defs>
    <style>
      .cls-1 {
        fill: #fff;
        fill-rule: evenodd;
      }
    </style>
  </defs>
  <g id="Camada_1-2" data-name="Camada 1">
    <path class="cls-1" d="M42.71,11.84l-18.3,18.66v12.56c-9.33,6.82-17.94,15.43-24.4,24.76l8.97,15.43c5.02-2.15,10.05-4.31,15.43-6.82v-5.38l37.32-17.23,2.51,4.67c-20.46,14.71-36.6,35.89-44.86,60.29,10.05,7.18,21.53,12.56,33.73,16.15-13.28,19.02-31.58,33.73-53.11,42.71l4.67,14.35h104.79l5.38-14.35c-15.43-8.25-27.63-21.53-34.09-37.68,2.87,0,5.02.36,7.54.36s5.02-.36,7.9-.72c16.15-20.46,25.84-46.65,25.84-74.65,0-33.73-27.27-60.65-60.29-60.65h-8.25c-7.18,0-13.64-1.44-19.74-4.31l-1.44,1.08,10.41,10.77Z"/>
  </g>
</svg>