<?xml version="1.0" encoding="UTF-8"?>
<svg id="Camada_2" data-name="Camada 2" xmlns="http://www.w3.org/2000/svg" viewBox="0 0 554.23 149.95">
  <defs>
    <style>
      .cls-1 {
        font-family: BankGothicBT-Medium, 'BankGothic Md BT';
        font-size: 63.12px;
        font-weight: 500;
      }

      .cls-2 {
        fill-rule: evenodd;
      }
    </style>
  </defs>
  <g id="Camada_1-2" data-name="Camada 1">
    <g>
      <path class="cls-2" d="M122.02,0v58.94c0,14.26,4.63,17.77,18.67,17.77h49.32c14.23,0,18.67-3.55,18.67-17.77V0h-16.72v63.39h-53.15V0h-16.79ZM337.98,0v76.7h16.49v-29.48h24.76l36.75,29.48h23.67l-41.32-29.48c6.17,0,20.25.52,25.47-.88,6.9-1.86,9.12-6.69,9.12-13.55V14.44c0-11.32-6.35-14.44-16.96-14.44h-77.99ZM407.93,12.13h0c5.28,0,8.89.96,8.89,6.82v9.4c0,5.92-3.54,6.9-8.89,6.9h-53.46V12.13h53.46ZM0,0v76.7h16.49v-29.48h24.76l36.75,29.48h23.67l-41.32-29.48c6.17,0,20.25.52,25.47-.88,6.9-1.86,9.12-6.69,9.12-13.55V14.44c0-11.32-6.34-14.44-16.96-14.44H0ZM69.95,12.13h0c5.28,0,8.89.96,8.89,6.82v9.4c0,5.92-3.54,6.9-8.89,6.9H16.49V12.13h53.46ZM229.03,12.58h35.83v64.12h16.79V12.58h35.98V0h-88.6v12.58h0ZM493.62.34l-43.79,76.36h16.57l9.62-17.04h49.05l9.04,17.04h19.19L509.49.33h-15.87ZM483.2,46.92l18.11-32.09,17.01,32.09h-35.12Z"/>
      <text class="cls-1" transform="translate(208.84 135.06)"><tspan x="0" y="0">CONCEPT</tspan></text>
    </g>
  </g>
</svg>