<?xml version="1.0" encoding="UTF-8"?>
<svg id="Camada_2" data-name="Camada 2" xmlns="http://www.w3.org/2000/svg" viewBox="0 0 373.36 237.34">
  <defs>
    <style>
      .cls-1 {
        fill: #ffd500;
      }

      .cls-1, .cls-2 {
        fill-rule: evenodd;
      }
    </style>
  </defs>
  <g id="Camada_1-2" data-name="Camada 1">
    <polygon class="cls-1" points="161.61 79.64 215.57 173.13 231.5 173.13 177.54 79.64 161.61 79.64"/>
    <path class="cls-2" d="M177.54,79.64l7.96,13.8h12.04c12.89-.04,24.55-5.28,32.98-13.73,8.43-8.46,13.65-20.12,13.65-32.98s-5.21-24.52-13.65-32.98C222.08,5.29,210.43.04,197.54,0h-60.37s7.96,13.79,7.96,13.79h52.41c9.05.03,17.25,3.73,23.18,9.68,5.93,5.94,9.59,14.16,9.59,23.24s-3.66,17.3-9.59,23.24c-5.94,5.96-14.13,9.65-23.18,9.68h-20Z"/>
    <polygon class="cls-2" points="161.61 79.64 129.2 79.62 137.16 93.41 169.58 93.44 161.61 79.64"/>
    <path class="cls-2" d="M338.69,237.34v-26.54h4.99l12.51,16.05,12.22-16.05h4.95v26.54h-5.71v-16.4c0-.32.02-.72.06-1.2.04-.49.1-1.03.16-1.64-.33.69-.63,1.25-.87,1.7-.26.45-.48.81-.68,1.09l-9.98,13.26h-1.23l-10-13.3c-.37-.51-.69-.98-.94-1.42-.26-.45-.47-.87-.64-1.29.05.56.09,1.05.12,1.51.03.45.03.88.03,1.3v16.4h-4.99ZM323.14,210.8h6.17v26.54h-6.17v-26.54h0ZM282.53,237.34v-26.54h4.22l18.69,15.64c.63.51,1.19,1,1.68,1.47.49.46.93.93,1.33,1.42-.09-1.49-.16-2.55-.2-3.16-.03-.63-.05-1.1-.05-1.43v-13.94h5.55v26.54h-4.22l-19.49-16.4c-.46-.42-.87-.79-1.23-1.13-.35-.33-.68-.68-.98-1.03.08.82.14,1.59.19,2.32.04.73.06,1.36.06,1.89v14.34h-5.55ZM248.08,237.34v-26.54h27.16v4.53h-20.98v5.92h12.24v4.53h-12.24v6.58h21.24v4.99h-27.41ZM208.79,237.34v-26.54h17.08c4.88,0,8.62,1.14,11.24,3.41,2.62,2.28,3.93,5.51,3.93,9.7,0,2.48-.51,4.71-1.53,6.69-1.02,1.98-2.46,3.54-4.32,4.68-1.16.72-2.59,1.24-4.3,1.57-1.72.33-3.92.49-6.6.49h-15.49ZM214.96,232.35h7.99c4.25,0,7.27-.66,9.04-1.99,1.77-1.32,2.67-3.51,2.67-6.56,0-2.72-.74-4.77-2.21-6.17-1.47-1.4-3.65-2.1-6.53-2.1h-10.96v16.82Z"/>
    <path class="cls-2" d="M42.22,210.8v20.39c0,4.93,1.6,6.15,6.46,6.15h17.06c4.92,0,6.46-1.23,6.46-6.15v-20.39h-5.78v21.93h-18.39v-21.93h-5.81ZM116.94,210.8v26.54h5.71v-10.2h8.57l12.72,10.2h8.19l-14.3-10.2c2.14,0,7.01.18,8.81-.31,2.39-.64,3.15-2.31,3.15-4.69v-6.35c0-3.92-2.2-4.99-5.87-4.99h-26.98ZM141.14,215h0c1.83,0,3.07.33,3.07,2.36v3.25c0,2.05-1.22,2.39-3.07,2.39h-18.5v-8h18.5ZM0,210.8v26.54h5.71v-10.2h8.57l12.72,10.2h8.19l-14.3-10.2c2.14,0,7.01.18,8.81-.31,2.39-.64,3.15-2.31,3.15-4.69v-6.35c0-3.92-2.19-4.99-5.87-4.99H0ZM24.2,215h0c1.83,0,3.08.33,3.08,2.36v3.25c0,2.05-1.22,2.39-3.08,2.39H5.71v-8h18.5ZM79.24,215.16h12.4v22.19h5.81v-22.19h12.45v-4.35h-30.66v4.35h0ZM170.79,210.92l-15.15,26.42h5.73l3.33-5.9h16.97l3.13,5.9h6.64l-15.15-26.42h-5.49ZM167.18,227.04l6.26-11.1,5.89,11.1h-12.15Z"/>
  </g>
</svg>