<?xml version="1.0" encoding="UTF-8"?>
<svg id="Camada_2" data-name="Camada 2" xmlns="http://www.w3.org/2000/svg" viewBox="0 0 561.64 297.52">
  <defs>
    <style>
      .cls-1 {
        fill-rule: evenodd;
      }
    </style>
  </defs>
  <g id="Camada_1-2" data-name="Camada 1">
    <rect x="554.97" y="75.38" width="6.66" height="197.76"/>
    <rect y="75.17" width="7.77" height="197.76"/>
    <path class="cls-1" d="M172.04,297.44v-2.55c1.75-.28,3.11-1.06,4.06-2.33.94-1.26,1.43-2.75,1.49-4.46v-11.06h-4.76v-2.61h17.93v2.61h-4.12c0,1.99-.02,3.45-.06,4.4-.2,3.95-1.79,7.53-4.76,10.68-2.97,3.17-6.22,4.94-9.78,5.32h0ZM166.24,294.89v2.55c-4.34-.56-7.97-2.47-10.9-5.74-2.93-3.25-4.42-7.05-4.46-11.4-.1-6.46-.1-12.39,0-17.77.1-4.36,1.59-8.15,4.5-11.4,2.91-3.25,6.52-5.18,10.86-5.8v2.75c-1.43.52-2.57,1.43-3.43,2.69-.86,1.28-1.32,2.65-1.38,4.12-.04,3.07-.06,8.57-.06,16.52s.02,13.43.06,16.4c.06,1.67.5,3.13,1.37,4.44.84,1.3,1.99,2.19,3.45,2.65h0ZM172.04,248.08v-2.69c2.23.28,4.1.92,5.64,1.95,1.53,1.02,2.93,2.43,4.22,4.22v-5.66h3.53v14.45h-3.53v-1.14c0-2.23-.9-4.46-2.73-6.73-1.83-2.27-4.2-3.73-7.13-4.4h0ZM208.16,294.97v2.55c-3.15-.38-5.86-1.73-8.09-4.08-2.25-2.35-3.49-5.18-3.73-8.53-.04-.46-.06-2.01-.06-4.64s.02-4.3.06-5c.18-3.35,1.41-6.24,3.65-8.67,2.23-2.43,4.96-3.89,8.17-4.36v2.61c-1.93.86-2.91,2.13-2.97,3.83-.04.66-.06,4.4-.06,11.22s.02,10.46.06,10.88c.14,1.99,1.14,3.37,2.97,4.18h0ZM212.42,297.52v-2.55c1.79-.8,2.77-2.19,2.91-4.18.04-.42.06-4.06.06-10.88s-.02-10.56-.06-11.22c-.06-1.55-1.02-2.83-2.91-3.83v-2.61c3.21.46,5.92,1.93,8.15,4.36,2.23,2.43,3.43,5.32,3.61,8.67.04.7.06,2.37.06,5s-.02,4.18-.06,4.64c-.24,3.35-1.47,6.18-3.69,8.49-2.23,2.31-4.92,3.69-8.07,4.12h0ZM250.8,297.52v-2.69c1.71-.86,2.59-2.23,2.69-4.12l.08-25.5h-2.91v-2.33h16.08v2.33h-4.26c-.04,12.37-.06,18.83-.06,19.41-.06,3.21-1.18,6.02-3.39,8.45-2.23,2.43-4.96,3.91-8.23,4.44h0ZM246.57,294.83v2.69c-3.27-.52-6-2.01-8.21-4.44-2.23-2.43-3.35-5.24-3.41-8.45l-.06-19.41h-4.26v-2.33h16.08v2.33h-2.99c0,14.74.02,23.23.08,25.5.1,1.85,1.02,3.21,2.77,4.12h0ZM295.35,276.26v-2.19c1.61-.7,2.41-2.09,2.41-4.12,0-1.65-.54-2.97-1.63-4-1.08-1.02-2.49-1.53-4.24-1.53-.62,0-1.32.12-2.13.36v-2.41c.62-.14,1.24-.22,1.91-.22,2.59,0,4.66.74,6.2,2.23,1.53,1.51,2.29,3.33,2.29,5.5,0,1.61-.44,2.97-1.31,4.1-.86,1.14-2.05,1.89-3.51,2.27h0ZM292.6,276.26v-2.19c-1.47-.7-2.21-1.79-2.21-3.25,0-1.32.52-2.25,1.57-2.77l-1.12-1.55c-1.85.9-2.77,2.41-2.77,4.52,0,1.14.44,2.23,1.32,3.25.86,1.04,1.95,1.71,3.21,1.99h0ZM285.51,262.89h-13.11v2.33h4.26v29.33h-4.26v2.33h17.43v-2.33h-4.32v-31.66h0ZM337.43,264.8l-1.12-1.91c1.22-.42,2.61-.64,4.12-.64,3.19,0,5.8.98,7.79,2.97,1.99,1.99,2.97,4.46,2.97,7.43v21.9h4.24v2.33h-13.17v-28.13c0-1.22-.4-2.19-1.22-2.93-.82-.74-1.73-1.1-2.67-1.1-.42,0-.74.02-.92.08h0ZM317.53,262.89v31.66h3.33v2.33h-16.44v-2.33h4.26v-29.33h-3.89v-2.33h12.75ZM322.13,264.72c.86.1,1.65.5,2.39,1.2.72.7,1.08,1.65,1.08,2.83v28.13h12.27v-2.33h-3.33v-21.9c0-2.97-.98-5.44-2.97-7.43-1.99-1.99-4.6-2.97-7.81-2.97-.42,0-.96.04-1.63.14v2.33h0ZM377.8,297.52v-2.55c2.07-.42,3.81-1.33,5.24-2.67,1.43-1.35,2.13-2.89,2.13-4.64h2.83c0,2.55-.98,4.74-2.97,6.52-1.99,1.79-4.4,2.91-7.23,3.33h0ZM377.8,264.86v-2.61c3.31.46,5.98,1.89,8.05,4.28,2.05,2.39,3.13,5.26,3.27,8.61v5.32h-14.15v-2.55h5.6c.04-5.06.04-8.01,0-8.85-.14-1.95-1.06-3.33-2.77-4.2h0ZM373.55,294.97v2.55c-3.31-.48-6.02-1.91-8.13-4.26-2.13-2.35-3.31-5.24-3.55-8.63-.04-.66-.06-2.41-.06-5.22s.02-4.46.06-4.92c.24-3.21,1.45-5.94,3.61-8.19,2.17-2.23,4.86-3.59,8.07-4.06v2.61c-1.75.76-2.69,2.17-2.83,4.2v21.74c0,1.93.94,3.31,2.83,4.18h0ZM407.78,252.75v36.4c0,1.67.44,2.97,1.35,3.93.9.98,1.99,1.47,3.25,1.47h3.39v2.33h-4.1c-3.59,0-6.62-1.16-9.07-3.47-2.45-2.31-3.67-5.22-3.67-8.71v-19.33h-4.4v-2.47h4.4v-3.75l8.85-6.38h0ZM417.89,265.36v-2.47h-7.37v2.47h7.37Z"/>
    <path class="cls-1" d="M428.45,193.49l12.63-22.39,11.87,22.39h-24.5ZM435.72,160.99l-30.56,53.28h11.56l6.71-11.89h34.23l6.3,11.89h13.39l-30.56-53.29h-11.07ZM251.11,169.53h25v44.74h11.72v-44.74h25.11v-8.78h-61.82v8.78h0ZM140.11,169.21h0c3.68,0,6.2.67,6.2,4.76v6.56c0,4.13-2.47,4.81-6.2,4.81h-37.3v-16.13h37.3ZM91.31,160.75v53.52h11.51v-20.57h17.28l25.64,20.57h16.51l-28.83-20.57c4.31,0,14.13.36,17.77-.62,4.81-1.3,6.36-4.67,6.36-9.46v-12.81c0-7.9-4.43-10.07-11.83-10.07h-54.42ZM375.93,169.21h0c3.68,0,6.2.67,6.2,4.76v6.56c0,4.13-2.47,4.81-6.2,4.81h-37.3v-16.13h37.3ZM327.13,160.75v53.52h11.51v-20.57h17.28l25.64,20.57h16.51l-28.83-20.57c4.31,0,14.13.36,17.77-.62,4.81-1.3,6.36-4.67,6.36-9.46v-12.81c0-7.9-4.43-10.07-11.83-10.07h-54.42ZM176.45,160.75v41.12c0,9.95,3.23,12.39,13.03,12.39h34.41c9.93,0,13.03-2.48,13.03-12.39v-41.12h-11.67v44.23h-37.09v-44.23h-11.72Z"/>
    <path class="cls-1" d="M272.97,7.5l-11.66,11.66v7.84c-5.83,4.42-11,9.66-15.36,15.54l5.67,9.83c3.34-1.24,6.58-2.71,9.68-4.38v-3.38l23.45-10.64,1.67,2.9c-12.98,9.27-22.95,22.47-28.16,37.87,6.41,4.4,13.53,7.86,21.15,10.16-8.33,11.83-19.93,21.19-33.47,26.8l3.09,8.93h65.95l3.09-8.93c-9.5-5.2-17.03-13.56-21.17-23.67,1.57.1,3.16.14,4.76.14s3.23-.08,4.82-.24c10.17-13.02,16.22-29.4,16.22-47.2,0-20.96-16.99-37.95-37.95-37.95h-5.08c-4.46,0-8.69-1-12.47-2.78l-.87.87,6.63,6.63Z"/>
    <rect x="539.91" y="97.04" width="5.76" height="154.03"/>
    <rect x="16.43" y="97.04" width="5.78" height="154.03"/>
  </g>
</svg>